<svg width="24" height="18" viewBox="0 0 24 18" fill="none" xmlns="http://www.w3.org/2000/svg">
<path d="M0.5 0.759277H3.1407C3.98715 0.759277 4.74194 1.29213 5.0253 2.08975L5.60526 3.72224M5.60526 3.72224L8.56647 12.0575C8.91539 13.0396 9.96005 13.5892 10.967 13.3203L21.016 10.637C21.8912 10.4033 22.5 9.61058 22.5 8.70472V5.72224C22.5 4.61767 21.6046 3.72224 20.5 3.72224H5.60526Z" stroke="white" stroke-width="1.3"/>
<path d="M5.41892 16.2407C5.41892 17.1244 6.13526 17.8407 7.01892 17.8407C7.90257 17.8407 8.61892 17.1244 8.61892 16.2407C8.61892 15.3571 7.90257 14.6407 7.01892 14.6407C6.13526 14.6407 5.41892 15.3571 5.41892 16.2407ZM6.2041 16.5407H7.01892V15.9407H6.2041V16.5407Z" fill="white"/>
<path d="M16.0107 16.2407C16.0107 17.1244 16.7271 17.8407 17.6107 17.8407C18.4944 17.8407 19.2107 17.1244 19.2107 16.2407C19.2107 15.3571 18.4944 14.6407 17.6107 14.6407C16.7271 14.6407 16.0107 15.3571 16.0107 16.2407ZM16.7959 16.5407H17.6107V15.9407H16.7959V16.5407Z" fill="white"/>
</svg>
