<svg width="34" height="26" viewBox="0 0 34 26" fill="none" xmlns="http://www.w3.org/2000/svg">
<rect x="6.8" y="3.3" width="20.4" height="20.4" rx="7.2" stroke="#16191E" stroke-width="1.6"/>
<path d="M17 6.96647C18.0165 6.96647 18.9941 7.34517 19.7441 8.02409L19.8916 8.16471C20.6582 8.93145 21.0888 9.97111 21.0889 11.0553C21.0889 12.1398 20.6584 13.1801 19.8916 13.9469C19.1248 14.7138 18.0844 15.1442 17 15.1442C15.9834 15.1442 15.0059 14.7657 14.2559 14.0866L14.1094 13.9469C13.3426 13.1801 12.9111 12.1398 12.9111 11.0553C12.9112 10.0388 13.2897 9.06119 13.9688 8.3112L14.1094 8.16471C14.8761 7.39795 15.9156 6.96653 17 6.96647Z" stroke="#16191E" stroke-width="1.6"/>
<path d="M24.3332 22.0556C24.3332 18.3055 21.0499 15.9444 16.9998 15.9444C12.9497 15.9444 9.6665 18.3055 9.6665 22.0556" stroke="#16191E" stroke-width="1.6"/>
</svg>
